<svg xmlns="http://www.w3.org/2000/svg" xmlns:xlink="http://www.w3.org/1999/xlink" width="50" zoomAndPan="magnify" viewBox="0 0 37.5 37.499999" height="50" preserveAspectRatio="xMidYMid meet" version="1.0"><defs><clipPath id="cc8e4e97aa"><path d="M 0 0 L 37.007812 0 L 37.007812 37.007812 L 0 37.007812 Z M 0 0 " clip-rule="nonzero"/></clipPath><clipPath id="18cf58a9d0"><path d="M 12.28125 5.648438 L 26.035156 5.648438 L 26.035156 19.5 L 12.28125 19.5 Z M 12.28125 5.648438 " clip-rule="nonzero"/></clipPath><clipPath id="ef588d7bcb"><path d="M 19.175781 7.6875 C 17.851562 7.6875 16.535156 8.230469 15.582031 9.300781 C 14.71875 10.269531 14.28125 11.519531 14.347656 12.820312 C 14.414062 14.121094 14.980469 15.320312 15.941406 16.191406 C 17.917969 17.992188 20.980469 17.828125 22.761719 15.828125 C 24.542969 13.832031 24.382812 10.738281 22.40625 8.9375 C 21.484375 8.101562 20.328125 7.6875 19.175781 7.6875 M 19.167969 19.480469 C 17.535156 19.480469 15.894531 18.898438 14.585938 17.707031 C 13.226562 16.472656 12.425781 14.773438 12.332031 12.925781 C 12.234375 11.082031 12.855469 9.308594 14.082031 7.933594 C 16.609375 5.097656 20.949219 4.871094 23.753906 7.421875 C 26.5625 9.976562 26.789062 14.359375 24.261719 17.195312 C 22.910156 18.710938 21.042969 19.480469 19.167969 19.480469 " clip-rule="nonzero"/></clipPath><clipPath id="d3026fa4a8"><path d="M 0.28125 0.648438 L 14.035156 0.648438 L 14.035156 14.5 L 0.28125 14.5 Z M 0.28125 0.648438 " clip-rule="nonzero"/></clipPath><clipPath id="652f355ccc"><path d="M 7.175781 2.6875 C 5.851562 2.6875 4.535156 3.230469 3.582031 4.300781 C 2.71875 5.269531 2.28125 6.519531 2.347656 7.820312 C 2.414062 9.121094 2.980469 10.320312 3.941406 11.191406 C 5.917969 12.992188 8.980469 12.828125 10.761719 10.828125 C 12.542969 8.832031 12.382812 5.738281 10.40625 3.9375 C 9.484375 3.101562 8.328125 2.6875 7.175781 2.6875 M 7.167969 14.480469 C 5.535156 14.480469 3.894531 13.898438 2.585938 12.707031 C 1.226562 11.472656 0.425781 9.773438 0.332031 7.925781 C 0.234375 6.082031 0.855469 4.308594 2.082031 2.933594 C 4.609375 0.0976562 8.949219 -0.128906 11.753906 2.421875 C 14.5625 4.976562 14.789062 9.359375 12.261719 12.195312 C 10.910156 13.710938 9.042969 14.480469 7.167969 14.480469 " clip-rule="nonzero"/></clipPath><clipPath id="1f67d224ac"><rect x="0" width="15" y="0" height="15"/></clipPath><clipPath id="c6adb26b4f"><path d="M 6.589844 5.648438 L 8.609375 5.648438 L 8.609375 17.445312 L 6.589844 17.445312 Z M 6.589844 17.445312 L 19.171875 17.445312 L 19.171875 19.484375 L 6.589844 19.484375 Z M 6.589844 17.445312 " clip-rule="nonzero"/></clipPath><clipPath id="8447c6df1c"><path d="M 0.589844 0.648438 L 2.609375 0.648438 L 2.609375 12.445312 L 0.589844 12.445312 Z M 0.589844 12.445312 L 13.171875 12.445312 L 13.171875 14.484375 L 0.589844 14.484375 Z M 0.589844 12.445312 " clip-rule="nonzero"/></clipPath><clipPath id="f03be0448d"><rect x="0" width="14" y="0" height="15"/></clipPath><clipPath id="585183074a"><path d="M 8 15.789062 L 24.300781 15.789062 L 24.300781 32.363281 L 8 32.363281 Z M 8 15.789062 " clip-rule="nonzero"/></clipPath><clipPath id="6df035c741"><path d="M 24.261719 17.195312 L 12.558594 30.324219 L 10.742188 32.363281 L 8.023438 32.363281 L 9.84375 30.324219 L 22.761719 15.828125 Z M 24.261719 17.195312 " clip-rule="nonzero"/></clipPath><clipPath id="3c9e8e4ff7"><path d="M 0 0.789062 L 16.300781 0.789062 L 16.300781 17.363281 L 0 17.363281 Z M 0 0.789062 " clip-rule="nonzero"/></clipPath><clipPath id="91bf5e816a"><path d="M 16.261719 2.195312 L 4.558594 15.324219 L 2.742188 17.363281 L 0.0234375 17.363281 L 1.84375 15.324219 L 14.761719 0.828125 Z M 16.261719 2.195312 " clip-rule="nonzero"/></clipPath><clipPath id="89e0349375"><rect x="0" width="17" y="0" height="18"/></clipPath><clipPath id="8d8f10bc42"><path d="M 8 30.285156 L 27 30.285156 L 27 32.363281 L 8 32.363281 Z M 8 30.285156 " clip-rule="nonzero"/></clipPath><clipPath id="fc77f07fb9"><path d="M 26.996094 30.324219 L 26.996094 32.363281 L 8.023438 32.363281 L 9.84375 30.324219 Z M 26.996094 30.324219 " clip-rule="nonzero"/></clipPath><clipPath id="655ac1b395"><path d="M 0 0.316406 L 19 0.316406 L 19 2.363281 L 0 2.363281 Z M 0 0.316406 " clip-rule="nonzero"/></clipPath><clipPath id="f423ee0c80"><path d="M 18.996094 0.324219 L 18.996094 2.363281 L 0.0234375 2.363281 L 1.84375 0.324219 Z M 18.996094 0.324219 " clip-rule="nonzero"/></clipPath><clipPath id="40155b798b"><rect x="0" width="19" y="0" height="3"/></clipPath><clipPath id="ced7c21175"><path d="M 13.367188 11.683594 L 31.375 11.683594 L 31.375 28.457031 L 13.367188 28.457031 Z M 13.367188 11.683594 " clip-rule="nonzero"/></clipPath><clipPath id="52b3ba5fee"><path d="M 30.546875 12.847656 C 29.296875 11.445312 27.136719 11.316406 25.734375 12.554688 C 25.023438 13.179688 24.605469 14.046875 24.558594 14.996094 C 24.511719 15.941406 24.839844 16.847656 25.484375 17.542969 L 27.863281 20.113281 C 29.179688 21.535156 29.203125 23.699219 27.910156 25.144531 C 27.214844 25.929688 26.214844 26.378906 25.171875 26.378906 C 24.128906 26.378906 23.132812 25.929688 22.433594 25.144531 L 16.09375 18.039062 L 13.375 18.039062 L 20.929688 26.511719 C 22.011719 27.722656 23.558594 28.417969 25.171875 28.417969 C 26.785156 28.417969 28.332031 27.722656 29.410156 26.511719 C 30.371094 25.4375 30.890625 24.046875 30.878906 22.601562 C 30.863281 21.152344 30.316406 19.773438 29.335938 18.71875 L 26.957031 16.148438 C 26.691406 15.863281 26.554688 15.488281 26.578125 15.097656 C 26.597656 14.707031 26.765625 14.351562 27.058594 14.09375 C 27.640625 13.582031 28.53125 13.636719 29.042969 14.214844 L 29.847656 15.117188 L 31.347656 13.75 Z M 30.546875 12.847656 " clip-rule="nonzero"/></clipPath><clipPath id="f8051df342"><path d="M 0.367188 0.683594 L 18.375 0.683594 L 18.375 17.421875 L 0.367188 17.421875 Z M 0.367188 0.683594 " clip-rule="nonzero"/></clipPath><clipPath id="3a04c7e8cc"><path d="M 17.546875 1.847656 C 16.296875 0.445312 14.136719 0.316406 12.734375 1.554688 C 12.023438 2.179688 11.605469 3.046875 11.558594 3.996094 C 11.511719 4.941406 11.839844 5.847656 12.484375 6.542969 L 14.863281 9.113281 C 16.179688 10.535156 16.203125 12.699219 14.910156 14.144531 C 14.214844 14.929688 13.214844 15.378906 12.171875 15.378906 C 11.128906 15.378906 10.132812 14.929688 9.433594 14.144531 L 3.09375 7.039062 L 0.375 7.039062 L 7.929688 15.511719 C 9.011719 16.722656 10.558594 17.417969 12.171875 17.417969 C 13.785156 17.417969 15.332031 16.722656 16.410156 15.511719 C 17.371094 14.4375 17.890625 13.046875 17.878906 11.601562 C 17.863281 10.152344 17.316406 8.773438 16.335938 7.71875 L 13.957031 5.148438 C 13.691406 4.863281 13.554688 4.488281 13.578125 4.097656 C 13.597656 3.707031 13.765625 3.351562 14.058594 3.09375 C 14.640625 2.582031 15.53125 2.636719 16.042969 3.214844 L 16.847656 4.117188 L 18.347656 2.75 Z M 17.546875 1.847656 " clip-rule="nonzero"/></clipPath><clipPath id="6eb3175c27"><rect x="0" width="19" y="0" height="18"/></clipPath></defs><g clip-path="url(#cc8e4e97aa)"><path fill="#ffffff" d="M 0 0 L 37.007812 0 L 37.007812 37.007812 L 0 37.007812 Z M 0 0 " fill-opacity="1" fill-rule="nonzero"/><path fill="#000000" d="M 0 0 L 37.007812 0 L 37.007812 37.007812 L 0 37.007812 Z M 0 0 " fill-opacity="1" fill-rule="nonzero"/></g><g clip-path="url(#18cf58a9d0)"><g clip-path="url(#ef588d7bcb)"><g transform="matrix(1, 0, 0, 1, 12, 5)"><g clip-path="url(#1f67d224ac)"><g clip-path="url(#d3026fa4a8)"><g clip-path="url(#652f355ccc)"><path fill="#ffffff" d="M -5.65625 0.402344 L 19.574219 0.402344 L 19.574219 27.613281 L -5.65625 27.613281 Z M -5.65625 0.402344 " fill-opacity="1" fill-rule="nonzero"/></g></g></g></g></g></g><g clip-path="url(#c6adb26b4f)"><g transform="matrix(1, 0, 0, 1, 6, 5)"><g clip-path="url(#f03be0448d)"><g clip-path="url(#8447c6df1c)"><path fill="#ffffff" d="M 0.34375 0.402344 L 25.574219 0.402344 L 25.574219 27.613281 L 0.34375 27.613281 Z M 0.34375 0.402344 " fill-opacity="1" fill-rule="nonzero"/></g></g></g></g><g clip-path="url(#585183074a)"><g clip-path="url(#6df035c741)"><g transform="matrix(1, 0, 0, 1, 8, 15)"><g clip-path="url(#89e0349375)"><g clip-path="url(#3c9e8e4ff7)"><g clip-path="url(#91bf5e816a)"><path fill="#ffffff" d="M -1.65625 -9.597656 L 23.574219 -9.597656 L 23.574219 17.613281 L -1.65625 17.613281 Z M -1.65625 -9.597656 " fill-opacity="1" fill-rule="nonzero"/></g></g></g></g></g></g><g clip-path="url(#8d8f10bc42)"><g clip-path="url(#fc77f07fb9)"><g transform="matrix(1, 0, 0, 1, 8, 30)"><g clip-path="url(#40155b798b)"><g clip-path="url(#655ac1b395)"><g clip-path="url(#f423ee0c80)"><path fill="#ffffff" d="M -1.65625 -24.597656 L 23.574219 -24.597656 L 23.574219 2.613281 L -1.65625 2.613281 Z M -1.65625 -24.597656 " fill-opacity="1" fill-rule="nonzero"/></g></g></g></g></g></g><g clip-path="url(#ced7c21175)"><g clip-path="url(#52b3ba5fee)"><g transform="matrix(1, 0, 0, 1, 13, 11)"><g clip-path="url(#6eb3175c27)"><g clip-path="url(#f8051df342)"><g clip-path="url(#3a04c7e8cc)"><path fill="#ffffff" d="M -6.65625 -5.597656 L 18.574219 -5.597656 L 18.574219 21.613281 L -6.65625 21.613281 Z M -6.65625 -5.597656 " fill-opacity="1" fill-rule="nonzero"/></g></g></g></g></g></g></svg>